<svg width="22" height="22" viewBox="0 0 22 22" fill="none" xmlns="http://www.w3.org/2000/svg">
<path d="M11.0006 0.166016C13.0118 0.166016 14.9406 0.964972 16.3628 2.38712C17.785 3.80927 18.5839 5.73812 18.5839 7.74935H19.7474C20.0203 7.74936 20.2831 7.85234 20.4833 8.03772C20.6836 8.22309 20.8065 8.4772 20.8275 8.74927L21.744 20.6659C21.7661 20.9524 21.6735 21.2359 21.4866 21.4541C21.2997 21.6723 21.0338 21.8073 20.7473 21.8294L20.6639 21.8327H1.33724C1.04992 21.8327 0.774372 21.7185 0.571207 21.5154C0.368043 21.3122 0.253906 21.0367 0.253906 20.7493L0.257156 20.6659L1.17366 8.74927C1.19467 8.4772 1.31757 8.22309 1.51781 8.03772C1.71805 7.85234 1.98087 7.74936 2.25374 7.74935H3.41724C3.41724 5.73812 4.2162 3.80927 5.63835 2.38712C7.0605 0.964972 8.98935 0.166016 11.0006 0.166016ZM18.7432 9.91602H3.25691L2.50616 19.666H19.4939L18.7432 9.91602ZM13.1672 12.0827V14.2493H8.83391V12.0827H13.1672ZM11.0006 2.33268C9.60474 2.33276 8.26282 2.87169 7.25465 3.83706C6.24648 4.80244 5.6499 6.11975 5.58932 7.51427L5.58391 7.74935H16.4172C16.4172 6.35351 15.8782 5.01159 14.9129 4.00342C13.9475 2.99526 12.6302 2.39868 11.2357 2.3381L11.0006 2.33268Z" fill="#151515"/>
</svg>
