<svg width="22" height="21" viewBox="0 0 22 21" fill="none" xmlns="http://www.w3.org/2000/svg">
<path d="M11.0006 1.90612C12.2384 0.798086 13.8536 0.206227 15.5142 0.252165C17.1748 0.298104 18.7548 0.978351 19.9295 2.15312C21.1031 3.32657 21.7834 4.90451 21.8309 6.56346C21.8785 8.22242 21.2896 9.83672 20.1851 11.0755L10.9985 20.2751L1.81395 11.0755C0.708146 9.83607 0.118755 8.22039 0.166783 6.5601C0.214811 4.89981 0.896612 3.3209 2.07221 2.14752C3.24781 0.974134 4.82801 0.295316 6.48839 0.250424C8.14877 0.205532 9.76333 0.797973 11.0006 1.90612ZM18.3955 3.68387C17.6128 2.90184 16.5606 2.44896 15.4547 2.41813C14.3487 2.38731 13.2729 2.78089 12.448 3.51812L11.0017 4.81595L9.55437 3.5192C8.72891 2.78109 7.65215 2.38708 6.54525 2.41811C5.43835 2.44914 4.38535 2.90284 3.60254 3.68603C2.82715 4.46138 2.37453 5.50186 2.33593 6.59771C2.29734 7.69357 2.67562 8.76331 3.39454 9.59129L10.9995 17.2082L18.6045 9.59237C19.3243 8.76406 19.7029 7.69355 19.6641 6.59692C19.6253 5.5003 19.1719 4.45923 18.3955 3.68387Z" fill="#151515"/>
</svg>
