<svg width="18" height="23" viewBox="0 0 18 23" fill="none" xmlns="http://www.w3.org/2000/svg">
<path d="M0.333984 22.834C0.333984 20.5354 1.24708 18.331 2.87239 16.7057C4.49771 15.0804 6.70211 14.1673 9.00065 14.1673C11.2992 14.1673 13.5036 15.0804 15.1289 16.7057C16.7542 18.331 17.6673 20.5354 17.6673 22.834H15.5006C15.5006 21.1101 14.8158 19.4568 13.5968 18.2378C12.3779 17.0188 10.7246 16.334 9.00065 16.334C7.27674 16.334 5.62344 17.0188 4.40446 18.2378C3.18547 19.4568 2.50065 21.1101 2.50065 22.834H0.333984ZM9.00065 13.084C5.4094 13.084 2.50065 10.1752 2.50065 6.58398C2.50065 2.99273 5.4094 0.0839844 9.00065 0.0839844C12.5919 0.0839844 15.5006 2.99273 15.5006 6.58398C15.5006 10.1752 12.5919 13.084 9.00065 13.084ZM9.00065 10.9173C11.3948 10.9173 13.334 8.97815 13.334 6.58398C13.334 4.18982 11.3948 2.25065 9.00065 2.25065C6.60648 2.25065 4.66732 4.18982 4.66732 6.58398C4.66732 8.97815 6.60648 10.9173 9.00065 10.9173Z" fill="#1F1D1D"/>
</svg>
