<svg width="24" height="24" viewBox="0 0 24 24" fill="none" xmlns="http://www.w3.org/2000/svg">
<g clip-path="url(#clip0_120_16304)">
<path d="M13.6219 23.9531H9.77103C9.12781 23.9531 8.60457 23.4309 8.60457 22.7889V14.12H6.35787C5.71465 14.12 5.19141 13.5976 5.19141 12.9558V9.24115C5.19141 8.59918 5.71465 8.07697 6.35787 8.07697H8.60457V6.2168C8.60457 4.37238 9.18486 2.80316 10.2825 1.67908C11.3851 0.549866 12.9261 -0.046875 14.7387 -0.046875L17.6756 -0.0421143C18.3177 -0.0410156 18.84 0.481201 18.84 1.12207V4.57105C18.84 5.21301 18.317 5.73523 17.6739 5.73523L15.6965 5.73596C15.0935 5.73596 14.9399 5.85663 14.9071 5.89362C14.853 5.95496 14.7886 6.12836 14.7886 6.60718V8.07678H17.5253C17.7313 8.07678 17.931 8.1275 18.1025 8.22308C18.4725 8.42944 18.7026 8.81964 18.7026 9.24133L18.7011 12.956C18.7011 13.5976 18.1779 14.1198 17.5347 14.1198H14.7886V22.7889C14.7886 23.4309 14.2652 23.9531 13.6219 23.9531V23.9531ZM10.0143 22.5461H13.3787V13.4901C13.3787 13.0615 13.7282 12.7128 14.1575 12.7128H17.2914L17.2927 9.48395H14.1573C13.728 9.48395 13.3787 9.13532 13.3787 8.70667V6.60718C13.3787 6.0575 13.4346 5.43237 13.8503 4.96252C14.3527 4.39453 15.1443 4.32898 15.6962 4.32898L17.4303 4.32825V1.3645L14.7376 1.36011C11.8245 1.36011 10.0143 3.22119 10.0143 6.2168V8.70667C10.0143 9.13513 9.66499 9.48395 9.23568 9.48395H6.60114V12.7128H9.23568C9.66499 12.7128 10.0143 13.0615 10.0143 13.4901V22.5461ZM17.6728 1.36487H17.673H17.6728Z" fill="#311C1C"/>
</g>
<defs>
<clipPath id="clip0_120_16304">
<rect width="24" height="24" fill="white"/>
</clipPath>
</defs>
</svg>
