<svg width="32" height="32" viewBox="0 0 32 32" fill="none" xmlns="http://www.w3.org/2000/svg">
<path d="M26 13.1552C26.0036 14.7709 25.3811 16.3252 24.2633 17.4917C21.7002 20.1493 19.2138 22.9203 16.5562 25.4802C15.9461 26.0577 14.9791 26.0367 14.3963 25.433L6.73646 17.4928C4.42118 15.0924 4.42118 11.2179 6.73646 8.81862C7.28366 8.24426 7.94181 7.78701 8.67099 7.47458C9.40017 7.16215 10.1852 7.00105 10.9785 7.00105C11.7718 7.00105 12.5568 7.16215 13.286 7.47458C14.0152 7.78701 14.6734 8.24426 15.2206 8.81862L15.4999 9.10632L15.7781 8.81862C16.3264 8.24562 16.9848 7.7892 17.7137 7.47671C18.4426 7.16421 19.2271 7.00207 20.0202 7C21.6162 7 23.1419 7.65521 24.2622 8.81862C25.3805 9.98502 26.0033 11.5393 26 13.1552V13.1552Z" stroke="#311C1C" stroke-width="2" stroke-linejoin="round"/>
</svg>
