<svg width="24" height="24" viewBox="0 0 24 24" fill="none" xmlns="http://www.w3.org/2000/svg">
<path d="M6.20435 7.10742H2.15845C1.7049 7.10742 1.33594 7.47638 1.33594 7.92993V23.1776C1.33594 23.631 1.7049 24 2.15845 24H6.20435C6.65771 24 7.02667 23.631 7.02667 23.1776V7.92993C7.02667 7.47638 6.65771 7.10742 6.20435 7.10742ZM5.61841 22.5917H2.7442V8.51568H5.61841V22.5917Z" fill="#311C1C"/>
<path d="M4.1814 0C2.59937 0 1.3125 1.28686 1.3125 2.86871C1.3125 4.45074 2.59937 5.7376 4.1814 5.7376C5.76306 5.7376 7.05011 4.45074 7.05011 2.86871C7.05011 1.28686 5.76324 0 4.1814 0ZM4.1814 4.32934C3.37592 4.32934 2.72076 3.67419 2.72076 2.86871C2.72076 2.06341 3.37592 1.40826 4.1814 1.40826C4.98669 1.40826 5.64185 2.06341 5.64185 2.86871C5.64185 3.674 4.98669 4.32934 4.1814 4.32934Z" fill="#311C1C"/>
<path d="M20.11 8.89489C19.1428 8.08758 17.9133 7.65582 16.6491 7.67926C15.864 7.69372 15.0967 7.88306 14.4015 8.22583V7.89294C14.4015 7.45917 14.0497 7.10742 13.616 7.10742H9.49646C9.06268 7.10742 8.71094 7.45917 8.71094 7.89294V23.2143C8.71094 23.6482 9.06268 23.9998 9.49646 23.9998H13.6973C14.0862 23.9998 14.4015 23.6845 14.4015 23.2957V14.1608C14.4015 13.3788 15.0134 12.717 15.7949 12.6938C16.6072 12.6698 17.2755 13.3233 17.2755 14.1302V23.3104C17.2755 23.6911 17.5842 23.9998 17.9649 23.9998H22.0022C22.3829 23.9998 22.6916 23.6911 22.6916 23.3104V14.4095C22.6916 12.2745 21.7506 10.2643 20.11 8.89489ZM21.2833 22.5915H18.684V14.1302C18.684 12.5614 17.4075 11.285 15.8385 11.285C14.2697 11.285 12.9932 12.5614 12.9932 14.1302V22.5915H10.1192V8.5155H12.9932V9.53887H12.9941C12.994 9.70477 13.0516 9.87139 13.1703 10.0056C13.4279 10.2967 13.873 10.3238 14.1642 10.066C14.858 9.4519 15.7497 9.10437 16.6751 9.08715C17.6014 9.06958 18.5005 9.38562 19.2076 9.97595C20.5269 11.0771 21.2833 12.693 21.2833 14.4095V22.5915Z" fill="#311C1C"/>
</svg>
