<svg width="32" height="32" viewBox="0 0 32 32" fill="none" xmlns="http://www.w3.org/2000/svg">
<path d="M20.668 20.666L25.3346 25.3327L20.668 20.666ZM6.66797 14.666C6.66797 15.7166 6.87489 16.7569 7.27693 17.7275C7.67897 18.6981 8.26825 19.58 9.01111 20.3229C9.75398 21.0657 10.6359 21.655 11.6065 22.0571C12.5771 22.4591 13.6174 22.666 14.668 22.666C15.7185 22.666 16.7588 22.4591 17.7294 22.0571C18.7 21.655 19.582 21.0657 20.3248 20.3229C21.0677 19.58 21.657 18.6981 22.059 17.7275C22.461 16.7569 22.668 15.7166 22.668 14.666C22.668 12.5443 21.8251 10.5095 20.3248 9.00916C18.8245 7.50887 16.7897 6.66602 14.668 6.66602C12.5462 6.66602 10.5114 7.50887 9.01111 9.00916C7.51082 10.5095 6.66797 12.5443 6.66797 14.666V14.666Z" stroke="#311C1C" stroke-width="2" stroke-linecap="round" stroke-linejoin="round"/>
</svg>
