<svg width="32" height="32" viewBox="0 0 32 32" fill="none" xmlns="http://www.w3.org/2000/svg">
<path d="M6.66797 26.6673V25.334C6.66797 22.8586 7.6513 20.4847 9.40164 18.7343C11.152 16.984 13.5259 16.0007 16.0013 16.0007V16.0007C18.4767 16.0007 20.8506 16.984 22.601 18.7343C24.3513 20.4847 25.3346 22.8586 25.3346 25.334V26.6673H6.66797ZM16.0013 16.0007C17.4158 16.0007 18.7723 15.4387 19.7725 14.4386C20.7727 13.4384 21.3346 12.0818 21.3346 10.6673C21.3346 9.25283 20.7727 7.89628 19.7725 6.89608C18.7723 5.89589 17.4158 5.33398 16.0013 5.33398C14.5868 5.33398 13.2303 5.89589 12.2301 6.89608C11.2299 7.89628 10.668 9.25283 10.668 10.6673C10.668 12.0818 11.2299 13.4384 12.2301 14.4386C13.2303 15.4387 14.5868 16.0007 16.0013 16.0007V16.0007Z" stroke="#311C1C" stroke-width="2" stroke-linecap="round" stroke-linejoin="round"/>
</svg>
