<svg width="32" height="32" viewBox="0 0 32 32" fill="none" xmlns="http://www.w3.org/2000/svg">
<path d="M18.0792 3.96897C16.744 3.43482 15.2544 3.43482 13.9192 3.96897L4.70802 7.65697C4.26307 7.83492 3.88159 8.14199 3.61268 8.53864C3.34378 8.9353 3.19978 9.40337 3.19922 9.88258V22.1162C3.19914 22.5959 3.34284 23.0647 3.61179 23.462C3.88073 23.8593 4.26257 24.1668 4.70802 24.345L13.9192 28.0298C15.2544 28.5639 16.744 28.5639 18.0792 28.0298L27.2904 24.345C27.7359 24.1668 28.1177 23.8593 28.3867 23.462C28.6556 23.0647 28.7993 22.5959 28.7992 22.1162V9.88258C28.799 9.40309 28.6551 8.93467 28.3862 8.53771C28.1173 8.14074 27.7356 7.83342 27.2904 7.65537L18.0792 3.96897ZM14.5144 5.45697C15.4681 5.0755 16.532 5.0755 17.4856 5.45697L25.8456 8.80097L22.1992 10.257L12.3528 6.32098L14.5128 5.45697H14.5144ZM10.1992 7.18017L20.0456 11.1178L15.9992 12.7386L6.15282 8.79938L10.1992 7.18177V7.18017ZM16.7992 14.1402L27.1992 9.98018V22.1146C27.1995 22.2746 27.1518 22.4311 27.0622 22.5637C26.9727 22.6963 26.8454 22.799 26.6968 22.8586L17.484 26.5434C17.26 26.6314 17.0312 26.7002 16.7992 26.7482V14.1402ZM15.1992 14.1402V26.7482C14.9653 26.7004 14.7361 26.6319 14.5144 26.5434L5.30162 22.8586C5.15332 22.7991 5.02621 22.6967 4.93667 22.5644C4.84713 22.432 4.79926 22.2759 4.79922 22.1162V9.98177L15.1992 14.1418V14.1402Z" fill="#311C1C"/>
</svg>
